<svg width="324" height="263" viewBox="0 0 324 263" fill="none" xmlns="http://www.w3.org/2000/svg">
<path d="M258.5 144L246.5 154L242.5 57L258.5 67L242.5 50.5L239 22H258.5V67V144Z" fill="#BF893F"/>
<path d="M186.5 17L49 125L186.5 0L294.5 96.5L186.5 17Z" fill="#BF893F"/>
<rect x="198" y="69" width="12" height="12" fill="#BF893F"/>
<rect x="198" y="84" width="12" height="12" fill="#BF893F"/>
<rect x="213" y="84" width="12" height="12" fill="#BF893F"/>
<rect x="213" y="69" width="12" height="12" fill="#BF893F"/>
<path d="M64.502 196.555C64.502 208.827 61.1491 217.421 54.4434 222.336C49.6257 225.884 42.6432 227.658 33.4961 227.658C25.5534 227.658 19.1895 226.047 14.4043 222.824C8.80534 219.081 6.00586 213.449 6.00586 205.93C6.00586 201.438 6.6569 196.831 7.95898 192.111C9.61914 186.089 11.735 183.078 14.3066 183.078C16.39 183.078 17.4316 184.852 17.4316 188.4C17.4316 189.279 17.2363 190.63 16.8457 192.453C16.4876 194.243 16.3086 195.594 16.3086 196.506C16.3086 203.179 22.7214 206.516 35.5469 206.516C48.6979 206.516 55.2734 204.107 55.2734 199.289C55.2734 198.215 53.8411 195.952 50.9766 192.502C48.2422 189.214 46.11 187.066 44.5801 186.057L52.6855 170.188C53.2064 169.146 53.6133 168.625 53.9062 168.625C54.1667 168.625 54.7526 169.097 55.6641 170.041C57.6172 172.092 59.4727 175.347 61.2305 179.807C63.4115 185.373 64.502 190.956 64.502 196.555ZM39.1113 165.305C39.3392 165.533 39.4531 165.744 39.4531 165.939C39.4531 166.167 39.3229 166.411 39.0625 166.672L32.5195 173.215C32.0638 173.671 31.5918 173.671 31.1035 173.215L24.4629 166.77C23.9095 166.249 23.9583 165.663 24.6094 165.012L30.7617 158.811C31.2826 158.29 31.8197 158.29 32.373 158.811L39.1113 165.305ZM97.1426 202.902H91.8691C79.6621 202.902 73.5586 196.522 73.5586 183.762C73.5586 178.326 73.3633 171.18 72.9727 162.326C72.5495 152.984 72.11 146.799 71.6543 143.771C71.4264 142.274 71.6868 141.2 72.4355 140.549L86.6445 130.539C87.6211 129.855 88.2884 129.514 88.6465 129.514C89.0697 129.514 89.2812 129.904 89.2812 130.686V173.703C89.2812 178.456 91.3809 180.832 95.5801 180.832H97.1426V202.902ZM159.715 202.951H95.3105V180.783H159.715V202.951ZM181.809 177.316C181.809 186.366 180.523 192.746 177.951 196.457C174.956 200.786 169.423 202.951 161.35 202.951H157.541V180.783H168.576C170.497 180.783 171.457 180.246 171.457 179.172C171.457 178.618 171.18 177.984 170.627 177.268C168.609 174.663 166.005 171.945 162.814 169.113C162.326 168.658 162.326 168.072 162.814 167.355L171.896 154.172C172.385 153.456 172.743 153.098 172.971 153.098C173.264 153.098 173.671 153.423 174.191 154.074C179.27 160.324 181.809 168.072 181.809 177.316ZM185.471 217.307C185.926 217.665 185.91 218.072 185.422 218.527L179.611 224.24C179.188 224.663 178.765 224.663 178.342 224.24L172.873 218.918L167.502 224.24C167.079 224.663 166.656 224.663 166.232 224.24L160.422 218.576C159.934 218.12 159.982 217.6 160.568 217.014L165.939 211.594C166.428 211.105 166.916 211.105 167.404 211.594L172.873 216.867L178.049 211.594C178.537 211.105 179.042 211.105 179.562 211.594L185.471 217.307ZM234.127 202.951H228.902C228.056 213.856 225.159 221.962 220.211 227.268C219.495 228.049 218.518 228.439 217.281 228.439H194.381C191.679 228.439 190.328 227.333 190.328 225.119C190.328 223.915 190.914 223.036 192.086 222.482C196.285 220.497 201.347 217.648 207.271 213.938C215.279 208.924 219.348 205.425 219.479 203.439C212.903 203.439 208.606 203.049 206.588 202.268C202.226 200.575 200.045 196.604 200.045 190.354C200.045 184.689 200.989 179.367 202.877 174.387C205.481 167.518 209.322 164.084 214.4 164.084C221.497 164.084 226.152 169.65 228.365 180.783H234.127V202.951ZM218.844 184.934C218.844 183.892 218.079 182.899 216.549 181.955C215.149 181.076 213.896 180.637 212.789 180.637C209.794 180.637 208.297 181.76 208.297 184.006C208.297 185.243 210.136 185.861 213.814 185.861C217.167 185.861 218.844 185.552 218.844 184.934ZM296.797 202.951H232.393V180.783H296.797V202.951ZM318.891 177.316C318.891 186.366 317.605 192.746 315.033 196.457C312.038 200.786 306.505 202.951 298.432 202.951H294.623V180.783H305.658C307.579 180.783 308.539 180.246 308.539 179.172C308.539 178.618 308.262 177.984 307.709 177.268C305.691 174.663 303.087 171.945 299.896 169.113C299.408 168.658 299.408 168.072 299.896 167.355L308.979 154.172C309.467 153.456 309.825 153.098 310.053 153.098C310.346 153.098 310.753 153.423 311.273 154.074C316.352 160.324 318.891 168.072 318.891 177.316ZM313.275 137.375C313.764 137.831 313.764 138.303 313.275 138.791L306.684 145.285C306.228 145.741 305.756 145.741 305.268 145.285L298.627 138.889C298.074 138.368 298.122 137.782 298.773 137.131L304.877 130.93C305.398 130.376 305.951 130.376 306.537 130.93L313.275 137.375Z" fill="#503B1C"/>
<path d="M124.914 254.258H118.867V253.57H124.914V254.258ZM135.137 256.93H133.105C132.116 256.93 131.621 257.055 131.621 257.305C131.621 257.372 131.65 257.427 131.707 257.469L132.004 257.594C132.743 257.823 133.212 257.992 133.41 258.102C133.936 258.383 134.199 258.758 134.199 259.227C134.199 259.878 133.676 260.484 132.629 261.047C131.629 261.583 130.608 261.852 129.566 261.852C128.618 261.852 127.847 261.635 127.254 261.203C126.587 260.714 126.254 260.013 126.254 259.102C126.254 258.591 126.319 258.078 126.449 257.562C126.517 257.307 126.605 257.034 126.715 256.742C126.84 256.424 126.98 256.096 127.137 255.758L127.387 255.914C127.189 256.357 127.053 256.695 126.98 256.93C126.913 257.143 126.879 257.419 126.879 257.758C126.879 258.555 127.225 259.151 127.918 259.547C128.475 259.875 129.181 260.039 130.035 260.039C130.842 260.039 131.605 259.958 132.324 259.797C133.074 259.63 133.449 259.451 133.449 259.258C133.449 259.086 132.967 259 132.004 259C131.092 259 130.637 258.651 130.637 257.953C130.637 257.281 130.887 256.646 131.387 256.047C131.913 255.411 132.504 255.094 133.16 255.094H135.137V256.93ZM140.218 256.93H139.062C138.578 256.93 138.205 256.711 137.945 256.273C137.784 255.997 137.64 255.56 137.515 254.961C137.166 256.273 136.687 256.93 136.078 256.93H134.797V255.094H136.078C136.453 255.094 136.731 254.938 136.914 254.625C137.138 254.24 137.229 253.724 137.187 253.078L137.148 252.422L137.117 251.531L136.968 249.602L136.898 248.328L136.906 248.039C136.911 247.878 137.039 247.62 137.289 247.266C137.534 247.536 137.7 247.792 137.789 248.031C137.862 248.229 137.906 248.604 137.922 249.156L137.945 250.172L138.015 251.867C138.041 252.388 138.078 252.789 138.125 253.07C138.161 253.284 138.239 253.609 138.359 254.047C138.547 254.745 138.781 255.094 139.062 255.094H140.218V256.93ZM142.378 249.125L141.73 250.234L140.66 249.414L141.324 248.312L142.378 249.125ZM147.394 252.773L147.199 254.195L146.683 254.25L145.988 254.266C145.899 254.271 145.79 254.281 145.66 254.297C144.946 254.406 144.371 254.57 143.933 254.789C143.636 254.935 143.071 255.326 142.238 255.961C141.743 256.336 141.352 256.604 141.066 256.766C140.858 256.875 140.631 256.93 140.386 256.93H139.808V255.094H140.48C140.891 255.094 141.306 255.031 141.722 254.906C142.139 254.776 142.707 254.523 143.425 254.148C142.769 253.805 142.173 253.633 141.636 253.633C141.381 253.633 141.157 253.654 140.964 253.695C140.829 253.727 140.579 253.81 140.214 253.945C140.376 253.258 140.553 252.771 140.746 252.484C141.042 252.031 141.472 251.805 142.035 251.805C142.264 251.805 142.516 251.839 142.792 251.906C142.938 251.964 143.199 252.06 143.574 252.195L144.464 252.5L145.16 252.695C145.592 252.81 146.032 252.854 146.48 252.828L146.847 252.797L147.394 252.773ZM150.492 254.602C150.507 255.185 150.372 255.844 150.085 256.578H149.781C149.781 255.776 149.744 255.107 149.671 254.57C149.671 254.57 149.604 254.167 149.468 253.359L149.015 250.602L148.984 250.188C148.973 249.969 149.033 249.74 149.163 249.5C149.257 249.323 149.512 249.01 149.929 248.562C149.929 249.318 149.973 249.977 150.062 250.539L150.257 251.758L150.343 252.508L150.429 253.422C150.429 253.615 150.437 253.805 150.452 253.992C150.463 254.122 150.476 254.326 150.492 254.602ZM156.284 254.508C156.284 255.414 156.037 256.039 155.542 256.383C154.917 256.815 153.99 257.031 152.761 257.031H152.644L152.152 257.023L151.566 256.945L151.917 254.859H152.105L152.308 254.875H152.495L152.714 254.898C153.49 254.951 154.248 254.898 154.987 254.742C155.456 254.643 155.691 254.474 155.691 254.234C155.691 253.922 155.318 253.534 154.573 253.07C154.219 252.852 153.636 252.544 152.823 252.148L153.636 250.172C154.297 250.615 154.795 251.023 155.128 251.398C155.899 252.273 156.284 253.31 156.284 254.508ZM169.706 256.93H167.675C166.685 256.93 166.19 257.055 166.19 257.305C166.19 257.372 166.219 257.427 166.276 257.469L166.573 257.594C167.313 257.823 167.781 257.992 167.979 258.102C168.505 258.383 168.768 258.758 168.768 259.227C168.768 259.878 168.245 260.484 167.198 261.047C166.198 261.583 165.177 261.852 164.136 261.852C163.188 261.852 162.417 261.635 161.823 261.203C161.156 260.714 160.823 260.013 160.823 259.102C160.823 258.591 160.888 258.078 161.018 257.562C161.086 257.307 161.175 257.034 161.284 256.742C161.409 256.424 161.55 256.096 161.706 255.758L161.956 255.914C161.758 256.357 161.623 256.695 161.55 256.93C161.482 257.143 161.448 257.419 161.448 257.758C161.448 258.555 161.794 259.151 162.487 259.547C163.044 259.875 163.75 260.039 164.604 260.039C165.412 260.039 166.175 259.958 166.893 259.797C167.643 259.63 168.018 259.451 168.018 259.258C168.018 259.086 167.537 259 166.573 259C165.662 259 165.206 258.651 165.206 257.953C165.206 257.281 165.456 256.646 165.956 256.047C166.482 255.411 167.073 255.094 167.729 255.094H169.706V256.93ZM176.944 252.773L176.749 254.195L176.233 254.25L175.538 254.266C175.449 254.271 175.34 254.281 175.21 254.297C174.496 254.406 173.921 254.57 173.483 254.789C173.186 254.935 172.621 255.326 171.788 255.961C171.293 256.336 170.902 256.604 170.616 256.766C170.408 256.875 170.181 256.93 169.936 256.93H169.358V255.094H170.03C170.441 255.094 170.856 255.031 171.272 254.906C171.689 254.776 172.257 254.523 172.975 254.148C172.319 253.805 171.723 253.633 171.186 253.633C170.931 253.633 170.707 253.654 170.514 253.695C170.379 253.727 170.129 253.81 169.764 253.945C169.926 253.258 170.103 252.771 170.296 252.484C170.592 252.031 171.022 251.805 171.585 251.805C171.814 251.805 172.066 251.839 172.342 251.906C172.488 251.964 172.749 252.06 173.124 252.195L174.014 252.5L174.71 252.695C175.142 252.81 175.582 252.854 176.03 252.828L176.397 252.797L176.944 252.773ZM180.042 254.602C180.057 255.185 179.922 255.844 179.635 256.578H179.331C179.331 255.776 179.294 255.107 179.221 254.57C179.221 254.57 179.154 254.167 179.018 253.359L178.565 250.602L178.534 250.188C178.523 249.969 178.583 249.74 178.713 249.5C178.807 249.323 179.062 249.01 179.479 248.562C179.479 249.318 179.523 249.977 179.612 250.539L179.807 251.758L179.893 252.508L179.979 253.422C179.979 253.615 179.987 253.805 180.002 253.992C180.013 254.122 180.026 254.326 180.042 254.602ZM186.053 256.93H184.858C184.717 258.008 184.454 258.922 184.069 259.672C183.522 260.734 182.811 261.266 181.936 261.266C181.524 261.266 181.113 261.172 180.702 260.984C180.467 260.88 180.097 260.667 179.592 260.344L179.717 260.117C179.733 260.122 179.905 260.148 180.233 260.195C180.384 260.216 180.483 260.227 180.53 260.227C181.785 260.227 183.069 259.281 184.381 257.391L183.858 256.766C183.535 256.38 183.298 255.977 183.147 255.555L184.131 254.078C184.475 254.755 184.819 255.094 185.162 255.094H186.053V256.93ZM193.033 253.227C193.033 254.43 192.294 255.383 190.815 256.086C189.627 256.648 188.362 256.93 187.018 256.93H185.737V255.094H187.526C187.64 254.812 187.708 254.602 187.729 254.461L187.768 254.18L187.783 253.844C187.804 253.417 187.744 252.836 187.604 252.102L187.237 250.219C187.117 249.583 187.057 249.078 187.057 248.703C187.057 248.083 187.346 247.464 187.924 246.844L188.088 247.141L188.338 247.547L188.799 248.273C188.346 248.909 188.119 249.435 188.119 249.852L188.315 251.211L188.369 251.758L188.393 252.242C188.414 252.643 188.346 253.289 188.19 254.18C189.059 252.451 190.13 251.586 191.401 251.586C191.885 251.586 192.278 251.74 192.58 252.047C192.882 252.349 193.033 252.742 193.033 253.227ZM192.213 253.977C192.213 253.799 192.031 253.646 191.666 253.516C191.369 253.411 191.112 253.359 190.893 253.359C189.914 253.359 189.099 253.909 188.448 255.008H188.768C188.95 255.008 189.135 254.995 189.323 254.969L190.158 254.844C190.711 254.76 191.205 254.628 191.643 254.445C192.023 254.289 192.213 254.133 192.213 253.977ZM203.486 256.93H202.228C201.697 259.68 200.666 261.055 199.135 261.055C198.687 261.055 198.265 260.969 197.869 260.797C197.603 260.677 197.228 260.451 196.744 260.117L196.885 259.938C197.077 260 197.213 260.034 197.291 260.039L197.697 260.07C197.786 260.076 197.874 260.078 197.963 260.078C199.494 260.078 200.786 259.029 201.838 256.93H201.564C201.049 256.93 200.682 256.872 200.463 256.758C200.161 256.596 200.01 256.286 200.01 255.828C200.01 255.245 200.184 254.562 200.533 253.781C200.908 252.964 201.26 252.555 201.588 252.555C201.801 252.555 201.978 252.755 202.119 253.156C202.192 253.365 202.247 253.62 202.283 253.922L202.432 255.094H203.486V256.93ZM201.947 255.094C201.661 254.552 201.353 254.281 201.025 254.281C200.744 254.281 200.603 254.406 200.603 254.656C200.603 254.807 200.676 254.919 200.822 254.992C200.968 255.06 201.148 255.094 201.361 255.094H201.947ZM206.631 254.195C206.631 254.93 206.482 255.544 206.185 256.039C205.826 256.633 205.302 256.93 204.615 256.93H203.185V255.094H204.615C205.448 255.094 205.865 254.958 205.865 254.688C205.865 254.63 205.724 254.438 205.443 254.109C205.308 253.953 205.24 253.812 205.24 253.688C205.24 253.557 205.37 253.219 205.631 252.672L206.021 251.852C206.25 252.367 206.414 252.792 206.513 253.125C206.592 253.406 206.631 253.763 206.631 254.195ZM206.857 259.617L206.193 260.719L205.17 260L204.67 260.922L203.568 260.102L204.248 259.016L205.232 259.805L205.834 258.82L206.857 259.617ZM214.666 256.93H213.58C212.736 256.93 212.14 256.302 211.791 255.047C211.254 256.198 210.418 256.773 209.283 256.773C208.757 256.773 208.387 256.701 208.173 256.555C207.96 256.404 207.853 256.174 207.853 255.867C207.853 255.779 207.942 255.419 208.119 254.789L208.213 254.43L208.384 253.945L208.588 253.977C208.676 254.289 208.824 254.516 209.033 254.656C209.241 254.792 209.561 254.859 209.994 254.859C210.478 254.859 210.819 254.826 211.017 254.758C211.361 254.633 211.533 254.378 211.533 253.992C211.533 253.669 211.465 253.185 211.33 252.539C211.199 251.888 211.134 251.401 211.134 251.078C211.134 250.833 211.189 250.599 211.298 250.375C211.366 250.229 211.449 250.096 211.548 249.977L211.986 249.414L212.009 250.312C212.015 250.552 212.046 250.807 212.103 251.078L212.353 252.359L212.666 253.797C212.749 254.198 212.832 254.477 212.916 254.633C213.072 254.94 213.293 255.094 213.58 255.094H214.666V256.93ZM218.966 256.93H217.81C217.518 256.93 217.281 256.854 217.099 256.703C216.922 256.552 216.763 256.294 216.622 255.93C216.289 256.596 215.912 256.93 215.49 256.93H214.287V255.094H215.49C215.719 255.094 215.922 255.078 216.099 255.047C216.214 255.026 216.339 254.979 216.474 254.906C216.677 254.792 216.914 254.549 217.185 254.18L217.255 254.195C217.339 254.794 217.524 255.094 217.81 255.094H218.966V256.93ZM218.044 251.32L217.38 252.422L216.357 251.711L215.857 252.625L214.755 251.805L215.435 250.727L216.419 251.508L217.021 250.523L218.044 251.32ZM226.431 254.195C226.431 254.784 226.314 255.307 226.079 255.766C225.788 256.339 225.376 256.625 224.845 256.625C224.314 256.625 223.884 256.292 223.556 255.625C223.16 256.495 222.582 256.93 221.822 256.93C221.124 256.93 220.65 256.591 220.4 255.914C220.186 256.591 219.809 256.93 219.267 256.93H218.689V255.094H219.267C219.496 255.094 219.697 255.078 219.868 255.047C219.988 255.026 220.116 254.979 220.251 254.906C220.449 254.792 220.686 254.549 220.962 254.18L221.025 254.195C221.108 254.794 221.374 255.094 221.822 255.094C222.394 255.094 222.863 254.948 223.228 254.656C223.546 254.401 223.824 253.99 224.064 253.422L224.236 253.523C224.236 253.914 224.337 254.237 224.54 254.492C224.759 254.773 225.059 254.914 225.439 254.914C225.678 254.914 225.798 254.844 225.798 254.703C225.798 254.677 225.712 254.586 225.54 254.43C225.368 254.273 225.283 254.104 225.283 253.922L225.29 253.5L225.361 253.023C225.392 252.779 225.47 252.469 225.595 252.094C226.152 252.62 226.431 253.32 226.431 254.195ZM229.528 254.602C229.544 255.185 229.409 255.844 229.122 256.578H228.817C228.817 255.776 228.781 255.107 228.708 254.57C228.708 254.57 228.64 254.167 228.505 253.359L228.052 250.602L228.021 250.188C228.01 249.969 228.07 249.74 228.2 249.5C228.294 249.323 228.549 249.01 228.966 248.562C228.966 249.318 229.01 249.977 229.099 250.539L229.294 251.758L229.38 252.508L229.466 253.422C229.466 253.615 229.474 253.805 229.489 253.992C229.5 254.122 229.513 254.326 229.528 254.602ZM237.267 254.258H231.22V253.57H237.267V254.258Z" fill="#8D714A"/>
</svg>
